<mxfile host="app.diagrams.net" modified="2024-01-04T04:56:51.286Z" agent="Mozilla/5.0 (Windows NT 10.0; Win64; x64; rv:121.0) Gecko/20100101 Firefox/121.0" etag="gBB_KkUvjFvPvHud6UZB" version="22.1.16" type="device">
  <diagram name="PÃ¡gina-1" id="BhKrLDPPHp8U7ivRgvxK">
    <mxGraphModel dx="2021" dy="716" grid="1" gridSize="10" guides="1" tooltips="1" connect="1" arrows="1" fold="1" page="1" pageScale="1" pageWidth="827" pageHeight="1169" math="0" shadow="0">
      <root>
        <mxCell id="0" />
        <mxCell id="1" parent="0" />
        <mxCell id="GgLBsfc6LlLgvcI9qvlO-6" value="" style="rounded=0;whiteSpace=wrap;html=1;strokeWidth=4;fillColor=#e1d5e7;strokeColor=#9673a6;" vertex="1" parent="1">
          <mxGeometry x="170" y="20" width="390" height="380" as="geometry" />
        </mxCell>
        <mxCell id="GgLBsfc6LlLgvcI9qvlO-3" value="" style="sketch=0;html=1;aspect=fixed;strokeColor=none;shadow=0;fillColor=#3B8DF1;verticalAlign=top;labelPosition=center;verticalLabelPosition=bottom;shape=mxgraph.gcp2.gear" vertex="1" parent="1">
          <mxGeometry x="280" y="90" width="130" height="130" as="geometry" />
        </mxCell>
        <mxCell id="GgLBsfc6LlLgvcI9qvlO-4" value="CPU" style="text;html=1;align=center;verticalAlign=middle;resizable=0;points=[];autosize=1;strokeColor=none;fillColor=none;fontStyle=1;fontSize=16;" vertex="1" parent="1">
          <mxGeometry x="315" y="140" width="60" height="30" as="geometry" />
        </mxCell>
        <mxCell id="GgLBsfc6LlLgvcI9qvlO-5" value="" style="sketch=0;html=1;aspect=fixed;strokeColor=none;shadow=0;fillColor=#3B8DF1;verticalAlign=top;labelPosition=center;verticalLabelPosition=bottom;shape=mxgraph.gcp2.gear" vertex="1" parent="1">
          <mxGeometry x="320" y="210" width="130" height="130" as="geometry" />
        </mxCell>
        <mxCell id="GgLBsfc6LlLgvcI9qvlO-7" value="CONTROL PLANE" style="text;html=1;align=center;verticalAlign=middle;resizable=0;points=[];autosize=1;strokeColor=none;fillColor=none;fontStyle=1;fontSize=16;" vertex="1" parent="1">
          <mxGeometry x="275" y="40" width="160" height="30" as="geometry" />
        </mxCell>
        <mxCell id="GgLBsfc6LlLgvcI9qvlO-8" value="" style="rounded=0;whiteSpace=wrap;html=1;strokeWidth=4;fillColor=#ffcc99;strokeColor=#36393d;" vertex="1" parent="1">
          <mxGeometry x="-40" y="480" width="240" height="380" as="geometry" />
        </mxCell>
        <mxCell id="GgLBsfc6LlLgvcI9qvlO-9" value="" style="rounded=0;whiteSpace=wrap;html=1;strokeWidth=4;fillColor=#f8cecc;strokeColor=#b85450;" vertex="1" parent="1">
          <mxGeometry x="240" y="480" width="240" height="380" as="geometry" />
        </mxCell>
        <mxCell id="GgLBsfc6LlLgvcI9qvlO-10" value="" style="rounded=0;whiteSpace=wrap;html=1;strokeWidth=4;fillColor=#b1ddf0;strokeColor=#10739e;" vertex="1" parent="1">
          <mxGeometry x="520" y="480" width="240" height="380" as="geometry" />
        </mxCell>
        <mxCell id="GgLBsfc6LlLgvcI9qvlO-11" value="" style="endArrow=none;html=1;rounded=0;strokeWidth=4;endFill=0;fillColor=#647687;strokeColor=#314354;" edge="1" parent="1">
          <mxGeometry width="50" height="50" relative="1" as="geometry">
            <mxPoint x="287" y="320" as="sourcePoint" />
            <mxPoint x="-350" y="760" as="targetPoint" />
            <Array as="points">
              <mxPoint x="57" y="320" />
              <mxPoint x="57" y="760" />
            </Array>
          </mxGeometry>
        </mxCell>
        <mxCell id="GgLBsfc6LlLgvcI9qvlO-12" value="" style="endArrow=none;html=1;rounded=0;strokeWidth=4;endFill=0;fillColor=#647687;strokeColor=#314354;" edge="1" parent="1">
          <mxGeometry width="50" height="50" relative="1" as="geometry">
            <mxPoint x="280" y="276" as="sourcePoint" />
            <mxPoint x="-350" y="716" as="targetPoint" />
            <Array as="points">
              <mxPoint x="12" y="276" />
              <mxPoint x="12" y="716" />
            </Array>
          </mxGeometry>
        </mxCell>
        <mxCell id="GgLBsfc6LlLgvcI9qvlO-13" value="" style="endArrow=none;html=1;rounded=0;strokeWidth=4;endFill=0;fillColor=#647687;strokeColor=#314354;" edge="1" parent="1">
          <mxGeometry width="50" height="50" relative="1" as="geometry">
            <mxPoint x="280" y="242" as="sourcePoint" />
            <mxPoint x="-350" y="682" as="targetPoint" />
            <Array as="points">
              <mxPoint x="-22" y="242" />
              <mxPoint x="-22" y="682" />
            </Array>
          </mxGeometry>
        </mxCell>
        <mxCell id="GgLBsfc6LlLgvcI9qvlO-14" value="" style="endArrow=none;html=1;rounded=0;strokeWidth=4;endFill=0;fillColor=#647687;strokeColor=#314354;" edge="1" parent="1">
          <mxGeometry width="50" height="50" relative="1" as="geometry">
            <mxPoint x="280" y="202" as="sourcePoint" />
            <mxPoint x="-350" y="640" as="targetPoint" />
            <Array as="points">
              <mxPoint x="-60" y="202" />
              <mxPoint x="-60" y="642" />
            </Array>
          </mxGeometry>
        </mxCell>
        <mxCell id="GgLBsfc6LlLgvcI9qvlO-15" value="" style="endArrow=none;html=1;rounded=0;strokeWidth=4;endFill=0;fillColor=#647687;strokeColor=#314354;" edge="1" parent="1">
          <mxGeometry width="50" height="50" relative="1" as="geometry">
            <mxPoint x="280" y="160" as="sourcePoint" />
            <mxPoint x="-350" y="602" as="targetPoint" />
            <Array as="points">
              <mxPoint x="-103" y="162" />
              <mxPoint x="-103" y="602" />
            </Array>
          </mxGeometry>
        </mxCell>
        <mxCell id="GgLBsfc6LlLgvcI9qvlO-22" value="" style="endArrow=classic;html=1;rounded=0;fillColor=#647687;strokeColor=#314354;strokeWidth=4;" edge="1" parent="1">
          <mxGeometry width="50" height="50" relative="1" as="geometry">
            <mxPoint x="410" y="154.5" as="sourcePoint" />
            <mxPoint x="920" y="600" as="targetPoint" />
            <Array as="points">
              <mxPoint x="740" y="155" />
              <mxPoint x="740" y="600" />
            </Array>
          </mxGeometry>
        </mxCell>
        <mxCell id="GgLBsfc6LlLgvcI9qvlO-23" value="" style="endArrow=classic;html=1;rounded=0;fillColor=#647687;strokeColor=#314354;strokeWidth=4;" edge="1" parent="1">
          <mxGeometry width="50" height="50" relative="1" as="geometry">
            <mxPoint x="410" y="200.5" as="sourcePoint" />
            <mxPoint x="920" y="640" as="targetPoint" />
            <Array as="points">
              <mxPoint x="710" y="200" />
              <mxPoint x="710" y="640" />
            </Array>
          </mxGeometry>
        </mxCell>
        <mxCell id="GgLBsfc6LlLgvcI9qvlO-24" value="" style="endArrow=classic;html=1;rounded=0;fillColor=#647687;strokeColor=#314354;strokeWidth=4;" edge="1" parent="1">
          <mxGeometry width="50" height="50" relative="1" as="geometry">
            <mxPoint x="450" y="240" as="sourcePoint" />
            <mxPoint x="920" y="680" as="targetPoint" />
            <Array as="points">
              <mxPoint x="680" y="240" />
              <mxPoint x="680" y="680" />
            </Array>
          </mxGeometry>
        </mxCell>
        <mxCell id="GgLBsfc6LlLgvcI9qvlO-25" value="" style="endArrow=classic;html=1;rounded=0;fillColor=#647687;strokeColor=#314354;strokeWidth=4;" edge="1" parent="1">
          <mxGeometry width="50" height="50" relative="1" as="geometry">
            <mxPoint x="460" y="280" as="sourcePoint" />
            <mxPoint x="920" y="720" as="targetPoint" />
            <Array as="points">
              <mxPoint x="640" y="280" />
              <mxPoint x="640" y="720" />
            </Array>
          </mxGeometry>
        </mxCell>
        <mxCell id="GgLBsfc6LlLgvcI9qvlO-26" value="" style="endArrow=classic;html=1;rounded=0;fillColor=#647687;strokeColor=#314354;strokeWidth=4;" edge="1" parent="1">
          <mxGeometry width="50" height="50" relative="1" as="geometry">
            <mxPoint x="450" y="322" as="sourcePoint" />
            <mxPoint x="920" y="760" as="targetPoint" />
            <Array as="points">
              <mxPoint x="600" y="322" />
              <mxPoint x="600" y="760" />
            </Array>
          </mxGeometry>
        </mxCell>
        <mxCell id="GgLBsfc6LlLgvcI9qvlO-27" value="INGRESS INTERFACE" style="text;html=1;strokeColor=none;fillColor=none;align=center;verticalAlign=middle;whiteSpace=wrap;rounded=0;strokeWidth=5;fontSize=16;fontStyle=1" vertex="1" parent="1">
          <mxGeometry x="-10" y="810" width="180" height="30" as="geometry" />
        </mxCell>
        <mxCell id="GgLBsfc6LlLgvcI9qvlO-29" value="DATA PLANE" style="text;html=1;strokeColor=none;fillColor=none;align=center;verticalAlign=middle;whiteSpace=wrap;rounded=0;strokeWidth=5;fontSize=16;fontStyle=1" vertex="1" parent="1">
          <mxGeometry x="265" y="810" width="180" height="30" as="geometry" />
        </mxCell>
        <mxCell id="GgLBsfc6LlLgvcI9qvlO-30" value="EGRESS INTERFACE" style="text;html=1;strokeColor=none;fillColor=none;align=center;verticalAlign=middle;whiteSpace=wrap;rounded=0;strokeWidth=5;fontSize=16;fontStyle=1" vertex="1" parent="1">
          <mxGeometry x="550" y="810" width="180" height="30" as="geometry" />
        </mxCell>
        <mxCell id="GgLBsfc6LlLgvcI9qvlO-31" value="1st Packet" style="text;html=1;strokeColor=none;fillColor=none;align=center;verticalAlign=middle;whiteSpace=wrap;rounded=0;strokeWidth=5;fontSize=16;fontStyle=1" vertex="1" parent="1">
          <mxGeometry x="-458" y="585" width="90" height="30" as="geometry" />
        </mxCell>
        <mxCell id="GgLBsfc6LlLgvcI9qvlO-32" value="2st Packet" style="text;html=1;strokeColor=none;fillColor=none;align=center;verticalAlign=middle;whiteSpace=wrap;rounded=0;strokeWidth=5;fontSize=16;fontStyle=1" vertex="1" parent="1">
          <mxGeometry x="-458" y="630" width="90" height="30" as="geometry" />
        </mxCell>
        <mxCell id="GgLBsfc6LlLgvcI9qvlO-33" value="3st Packet" style="text;html=1;strokeColor=none;fillColor=none;align=center;verticalAlign=middle;whiteSpace=wrap;rounded=0;strokeWidth=5;fontSize=16;fontStyle=1" vertex="1" parent="1">
          <mxGeometry x="-458" y="670" width="90" height="30" as="geometry" />
        </mxCell>
        <mxCell id="GgLBsfc6LlLgvcI9qvlO-34" value="4st Packet" style="text;html=1;strokeColor=none;fillColor=none;align=center;verticalAlign=middle;whiteSpace=wrap;rounded=0;strokeWidth=5;fontSize=16;fontStyle=1" vertex="1" parent="1">
          <mxGeometry x="-458" y="710" width="90" height="30" as="geometry" />
        </mxCell>
        <mxCell id="GgLBsfc6LlLgvcI9qvlO-35" value="5st Packet" style="text;html=1;strokeColor=none;fillColor=none;align=center;verticalAlign=middle;whiteSpace=wrap;rounded=0;strokeWidth=5;fontSize=16;fontStyle=1" vertex="1" parent="1">
          <mxGeometry x="-458" y="750" width="90" height="30" as="geometry" />
        </mxCell>
      </root>
    </mxGraphModel>
  </diagram>
</mxfile>
